<svg xmlns="http://www.w3.org/2000/svg" width="18" height="18" viewBox="0 0 18 18">
  <defs>
    <linearGradient id="e068b583-c096-4b6b-bdbe-0ee2226bcd31" x1="9.106" y1="18.622" x2="9.106" y2="-0.562" gradientUnits="userSpaceOnUse">
      <stop offset="0" stop-color="#32bedd" />
      <stop offset="0.817" stop-color="#50e6ff" />
    </linearGradient>
    <linearGradient id="b3d665f4-79da-4fd2-91c7-224879570f0f" x1="4.584" y1="5.752" x2="4.584" y2="14.919" gradientUnits="userSpaceOnUse">
      <stop offset="0" stop-color="#a67af4" />
      <stop offset="0.997" stop-color="#773adc" />
    </linearGradient>
  </defs>
  <g id="a97e1377-4f4d-40a3-9744-75092b6765a8">
    <path d="M18,10.971A4,4,0,0,0,14.531,7.13,5.036,5.036,0,0,0,9.343,2.313,5.2,5.2,0,0,0,4.379,5.682,4.742,4.742,0,0,0,.213,10.268a4.839,4.839,0,0,0,5.008,4.651c.149,0,.3-.007.441-.019h8.111a.8.8,0,0,0,.214-.032A4.043,4.043,0,0,0,18,10.971Z" fill="url(#e068b583-c096-4b6b-bdbe-0ee2226bcd31)" />
    <path d="M0,10.336A4.541,4.541,0,0,1,4.584,5.752a4.541,4.541,0,0,1,4.583,4.584v4.583H4.584A4.54,4.54,0,0,1,0,10.336Z" fill-rule="evenodd" fill="url(#b3d665f4-79da-4fd2-91c7-224879570f0f)" />
    <polygon points="6.476 9.853 6.476 7.894 4.78 6.915 3.084 7.894 3.084 9.853 4.78 10.832 6.476 9.853" fill="#fff" opacity="0.4" />
    <polygon points="6.153 9.667 6.153 8.08 4.78 7.287 3.406 8.08 3.406 9.667 4.78 10.46 6.153 9.667" fill="#fff" opacity="0.4" />
    <polygon points="4.78 12.777 4.78 10.819 3.084 9.84 1.388 10.819 1.388 12.777 3.084 13.757 4.78 12.777" fill="#fff" opacity="0.6" />
    <polygon points="4.457 12.591 4.457 11.005 3.084 10.212 1.71 11.005 1.71 12.591 3.084 13.385 4.457 12.591" fill="#fff" opacity="0.6" />
    <polygon points="8.171 12.777 8.171 10.819 6.476 9.84 4.78 10.819 4.78 12.777 6.476 13.757 8.171 12.777" fill="#fff" opacity="0.8" />
    <polygon points="7.849 12.591 7.849 11.005 6.476 10.212 5.102 11.005 5.102 12.591 6.476 13.385 7.849 12.591" fill="#fff" opacity="0.8" />
    <path d="M6.549,11.755,5.065,9.2a.431.431,0,0,0-.285-.757.435.435,0,0,0-.435.434.43.43,0,0,0,.149.322L3.01,11.755l.147.086L4.642,9.28a.352.352,0,0,0,.275,0L6.4,11.841Z" fill="#a67af4" />
    <path d="M3.518,11.8a.435.435,0,1,1-.434-.434A.434.434,0,0,1,3.518,11.8Zm2.958-.434a.435.435,0,1,0,.434.434A.434.434,0,0,0,6.476,11.364Z" fill="#773adc" />
  </g>
</svg>